<?xml version="1.0" encoding="UTF-8"?>
<svg xmlns="http://www.w3.org/2000/svg" xmlns:xlink="http://www.w3.org/1999/xlink" viewBox="0 0 64 64" width="64px" height="64px">
<g id="surface142392510">
<path style=" stroke:none;fill-rule:nonzero;fill:rgb(100%,100%,100%);fill-opacity:1;" d="M 22 14 C 12.054688 14 4 22.054688 4 32 C 4 41.945312 12.054688 50 22 50 C 31.945312 50 40 41.945312 40 32 C 40 30.765625 39.867188 29.5625 39.625 28.398438 L 39.53125 28 L 22 28 L 22 34 L 34 34 C 33.046875 39.671875 27.945312 44 22 44 C 15.375 44 10 38.625 10 32 C 10 25.375 15.375 20 22 20 C 25 20 27.734375 21.109375 29.84375 22.929688 L 34.140625 18.71875 C 30.9375 15.789062 26.679688 14 22 14 Z M 50 22 L 50 28 L 44 28 L 44 32 L 50 32 L 50 38 L 54 38 L 54 32 L 60 32 L 60 28 L 54 28 L 54 22 Z M 50 22 "/>
</g>
</svg>
